{
.appVersion = "3151";
.formatVersion = 3;
customParameters = (
{
name = vendorID;
value = ADBO;
},
{
name = panose;
value = (
2,
11,
2,
0,
0,
0,
0,
0,
0,
0
);
},
{
name = unicodeRanges;
value = (
0,
1,
7,
29,
36,
42,
43,
44,
45,
48,
49,
50,
51,
52,
54,
55,
57,
59,
61,
65,
66,
68
);
},
{
name = codePageRanges;
value = (
"1252",
"1250",
"1251",
"1258",
"932",
"936",
"bit 29",
"bit 30"
);
},
{
name = fsType;
value = (
);
}
);
date = "2021-04-29 08:43:11 +0000";
familyName = "Yaku Han JP";
featurePrefixes = (
{
automatic = 1;
code = "languagesystem DFLT dflt;
";
name = Languagesystems;
}
);
features = (
{
automatic = 1;
code = "feature vert;
feature vrt2;
";
tag = aalt;
},
{
code = "sub comma-han by comma-han.vert;
sub period-han by period-han.vert;
sub colon.full by colon.full.vert;
sub blacklenticularbracketleft by blacklenticularbracketleft.vert;
sub blacklenticularbracketright by blacklenticularbracketright.vert;
sub cornerbracketleft by cornerbracketleft.vert;
sub cornerbracketright by cornerbracketright.vert;
sub dblanglebracketleft by dblanglebracketleft.vert;
sub dblanglebracketright by dblanglebracketright.vert;
sub tortoiseshellbracketleft by tortoiseshellbracketleft.vert;
sub tortoiseshellbracketright by tortoiseshellbracketright.vert;
sub whitecornerbracketleft by whitecornerbracketleft.vert;
sub whitecornerbracketright by whitecornerbracketright.vert;
sub whitelenticularbracketleft by whitelenticularbracketleft.vert;
sub whitelenticularbracketright by whitelenticularbracketright.vert;
sub braceleft.full by braceleft.full.vert;
sub braceright.full by braceright.full.vert;
sub bracketleft.full by bracketleft.full.vert;
sub bracketright.full by bracketright.full.vert;
sub parenleft.full by parenleft.full.vert;
sub parenright.full by parenright.full.vert;
sub angleLeft by anglebracketleft.vert;
sub angleRight by anglebracketright.vert;";
tag = vert;
},
{
automatic = 1;
code = "sub comma-han by comma-han.vert;
sub period-han by period-han.vert;

glyphs = (
{
glyphname = .notdef;
lastChange = "2023-08-27 12:30:43 +0000";
layers = (
{
layerId = m01;
shapes = (
{
closed = 1;
nodes = (
(900,880,l),
(100,880,l),
(100,-120,l),
(900,-120,l)
);
},
{
closed = 1;
nodes = (
(818,830,l),
(500,421,l),
(182,830,l)
);
},
{
closed = 1;
nodes = (
(850,-29,l),
(532,380,l),
(850,789,l)
);
},
{
closed = 1;
nodes = (
(818,-70,l),
(182,-70,l),
(500,339,l)
);
},
{
closed = 1;
nodes = (
(150,-29,l),
(150,789,l),
(468,380,l)
);
}
);
vertWidth = 1000;
width = 1000;
}
);
note = ".notdef";
},
{
glyphname = "comma-han";
lastChange = "2023-08-27 12:30:43 +0000";
layers = (
{
layerId = m01;
shapes = (
{
closed = 1;
nodes = (
(344,59,o),
(270,139,o),
(187,218,o),
(152,247,q),
(36,147,l),
(72,118,o),
(147,43,o),
(221,-36,o),
(250,-72,q),
(368,29,l)
);
}
);
vertWidth = 1000;
width = 1000;
}
);
note = uni3001;
unicode = 12289;
},
{
glyphname = "comma-han.vert";
lastChange = "2023-08-27 12:30:43 +0000";
layers = (
{
layerId = m01;
shapes = (
{
closed = 1;
nodes = (
(935,658,o),
(861,736,o),
(781,813,o),
(746,841,q),
(632,744,l),
(684,700,o),
(798,582,o),
(842,529,q),
(958,628,l)
);
}
);
vertWidth = 1000;
width = 1000;
}
);
note = uniFE11;
unicode = 65041;
},
{
glyphname = "period-han";
lastChange = "2023-08-27 12:30:43 +0000";
layers = (
{
layerId = m01;
shapes = (
{
closed = 1;
nodes = (
(73,205,o),
(29,130,o),
(29,85,qs),
(29,40,o),
(73,-35,o),
(148,-80,o),
(193,-80,qs),
(239,-80,o),
(313,-35,o),
(358,40,o),
(358,85,qs),
(358,130,o),
(313,205,o),
(239,249,o),
(193,249,qs),
(148,249,o)
);
},
{
closed = 1;
nodes = (
(131,21,o),
(107,61,o),
(107,85,qs),
(107,108,o),
(131,148,o),
(170,171,o),
(193,171,qs),
(217,171,o),
(257,148,o),
(280,108,o),
(280,85,qs),
(280,49,o),
(230,-2,o),
(194,-2,qs),
(170,-2,o)
);
}
);
vertWidth = 1000;
width = 1000;
}
);
note = uni3002;
unicode = 12290;
},
{
glyphname = "period-han.vert";
lastChange = "2023-08-27 12:30:43 +0000";
layers = (
{
layerId = m01;
shapes = (
{
closed = 1;
nodes = (
(678,784,o),
(634,710,o),
(634,666,qs),
(634,621,o),
(678,549,o),
(751,504,o),
(795,504,qs),
(841,504,o),
(914,549,o),
(957,621,o),
(957,666,qs),
(957,710,o),
(914,784,o),
(841,827,o),
(795,827,qs),
(751,827,o)
);
},
{
closed = 1;
nodes = (
(734,604,o),
(711,643,o),
(711,666,qs),
(711,690,o),
(734,727,o),
(773,750,o),
(796,750,qs),
(819,750,o),
(857,727,o),
(880,690,o),
(880,666,qs),
(880,630,o),
(831,581,o),
(795,581,qs),
(773,581,o)
);
}
);
vertWidth = 1000;
width = 1000;
}
);
note = uniFE12;
unicode = 65042;
},
{
glyphname = hyphenationpoint;
lastChange = "2023-08-27 12:30:43 +0000";
layers = (
{
layerId = m01;
shapes = (
{
closed = 1;
nodes = (
(402,478,o),
(366,417,o),
(366,380,qs),
(366,343,o),
(402,282,o),
(464,246,o),
(500,246,qs),
(538,246,o),
(598,282,o),
(634,344,o),
(634,380,qs),
(634,418,o),
(598,478,o),
(537,514,o),
(500,514,qs),
(463,514,o)
);
}
);
vertWidth = 1000;
width = 1000;
}
);
note = uni2027;
unicode = (8231,12539);
},
{
glyphname = colon.full;
lastChange = "2023-08-27 12:30:43 +0000";
layers = (
{
layerId = m01;
shapes = (
{
closed = 1;
nodes = (
(601,565,o),
(601,607,qs),
(601,650,o),
(542,707,o),
(500,707,qs),
(458,707,o),
(399,650,o),
(399,607,qs),
(399,565,o),
(458,508,o),
(500,508,qs),
(542,508,o)
);
},
{
closed = 1;
nodes = (
(601,92,o),
(601,133,qs),
(601,176,o),
(542,234,o),
(500,234,qs),
(458,234,o),
(399,176,o),
(399,133,qs),
(399,92,o),
(458,34,o),
(500,34,qs),
(542,34,o)
);
}
);
vertWidth = 1000;
width = 1000;
}
);
note = uniFF1A;
unicode = 65306;
},
{
glyphname = exclam.full;
lastChange = "2023-08-27 12:30:43 +0000";
layers = (
{
layerId = m01;
shapes = (
{
closed = 1;
nodes = (
(585,591,l),
(590,748,l),
(410,748,l),
(415,591,l),
(443,262,l),
(557,262,l)
);
},
{
closed = 1;
nodes = (
(595,43,o),
(595,85,qs),
(595,126,o),
(541,179,o),
(500,179,qs),
(459,179,o),
(405,126,o),
(405,85,qs),
(405,43,o),
(458,-11,o),
(500,-11,qs),
(541,-11,o)
);
}
);
vertWidth = 1000;
width = 1000;
}
);
note = uniFF01;
unicode = 65281;
},
{
glyphname = question.full;
lastChange = "2023-08-27 12:30:43 +0000";
layers = (
{
layerId = m01;
shapes = (
{
closed = 1;
nodes = (
(558,295,o),
(584,346,o),
(630,386,o),
(683,424,o),
(730,466,o),
(761,520,o),
(761,556,qs),
(761,625,o),
(693,716,o),
(578,760,o),
(505,760,qs),
(425,760,o),
(292,692,o),
(244,636,q),
(334,553,l),
(369,590,o),
(441,629,o),
(486,629,qs),
(522,629,o),
(576,609,o),
(606,571,o),
(606,541,qs),
(606,518,o),
(576,480,o),
(530,445,o),
(479,406,o),
(436,360,o),
(413,300,o),
(418,262,q),
(561,262,l)
);
},
{
closed = 1;
nodes = (
(585,43,o),
(585,85,qs),
(585,126,o),
(530,179,o),
(490,179,qs),
(449,179,o),
(394,126,o),
(394,85,qs),
(394,43,o),
(448,-11,o),
(490,-11,qs),
(530,-11,o)
);
}
);
vertWidth = 1000;
width = 1000;
}
);
note = uniFF1F;
unicode = 65311;
},
{
glyphname = semicolon.full;
lastChange = "2023-08-27 12:30:43 +0000";
layers = (
{
layerId = m01;
shapes = (
{
closed = 1;
nodes = (
(621,33,o),
(621,127,qs),
(621,201,o),
(561,285,o),
(505,285,qs),
(463,285,o),
(401,235,o),
(401,190,qs),
(401,145,o),
(463,94,o),
(503,94,qs),
(520,94,o),
(551,106,o),
(564,117,q),
(508,210,l),
(512,99,ls),
(513,53,o),
(446,-25,o),
(380,-49,q),
(416,-137,l),
(515,-106,o)
);
},
{
closed = 1;
nodes = (
(601,565,o),
(601,607,qs),
(601,650,o),
(542,707,o),
(500,707,qs),
(458,707,o),
(399,650,o),
(399,607,qs),
(399,565,o),
(458,508,o),
(500,508,qs),
(542,508,o)
);
}
);
vertWidth = 1000;
width = 1000;
}
);
note = uniFF1B;
unicode = 65307;
},
{
glyphname = colon.full.vert;
lastChange = "2023-08-27 12:30:43 +0000";
layers = (
{
layerId = m01;
shapes = (
{
closed = 1;
nodes = (
(364,329,o),
(364,371,qs),
(364,414,o),
(306,470,o),
(263,470,qs),
(221,470,o),
(163,414,o),
(163,371,qs),
(163,329,o),
(221,271,o),
(263,271,qs),
(306,271,o)
);
},
{
closed = 1;
nodes = (
(837,329,o),
(837,371,qs),
(837,414,o),
(779,470,o),
(737,470,qs),
(694,470,o),
(636,414,o),
(636,371,qs),
(636,329,o),
(694,271,o),
(737,271,qs),
(779,271,o)
);
}
);
vertWidth = 1000;
width = 1000;
}
);
note = glyph17776;
},
{
glyphname = angleLeft;
lastChange = "2023-08-27 12:30:43 +0000";
layers = (
{
layerId = m01;
shapes = (
{
closed = 1;
nodes = (
(946,807,l),
(837,853,l),
(553,380,l),
(837,-93,l),
(946,-47,l),
(689,380,l)
);
}
);
vertWidth = 1000;
width = 1000;
}
);
note = uni2329;
unicode = (9001,12296);
},
{
glyphname = angleRight;
lastChange = "2023-08-27 12:30:43 +0000";
layers = (
{
layerId = m01;
shapes = (
{
closed = 1;
nodes = (
(447,380,l),
(163,853,l),
(54,807,l),
(311,380,l),
(54,-47,l),
(163,-93,l)
);
}
);
vertWidth = 1000;
width = 1000;
}
);
note = uni3009;
unicode = (9002,12297);
},
{
glyphname = blacklenticularbracketleft;
lastChange = "2023-08-27 12:30:43 +0000";
layers = (
{
layerId = m01;
shapes = (
{
closed = 1;
nodes = (
(659,853,l),
(659,-93,l),
(973,-93,l),
(973,-88,l),
(919,-41,o),
(829,99,o),
(775,277,o),
(775,380,qs),
(775,484,o),
(829,661,o),
(919,802,o),
(973,848,q),
(973,853,l)
);
}
);
vertWidth = 1000;
width = 1000;
}
);
note = uni3010;
unicode = 12304;
},
{
glyphname = blacklenticularbracketright;
lastChange = "2023-08-27 12:30:43 +0000";
layers = (
{
layerId = m01;
shapes = (
{
closed = 1;
nodes = (
(27,853,l),
(27,848,l),
(82,802,o),
(171,661,o),
(225,484,o),
(225,380,qs),
(225,277,o),
(171,99,o),
(82,-41,o),
(27,-88,q),
(27,-93,l),
(341,-93,l),
(341,853,l)
);
}
);
vertWidth = 1000;
width = 1000;
}
);
note = uni3011;
unicode = 12305;
},
{
glyphname = braceleft.full;
lastChange = "2023-08-27 12:30:43 +0000";
layers = (
{
layerId = m01;
shapes = (
{
closed = 1;
nodes = (
(972,-12,l),
(943,-12,ls),
(907,-12,o),
(883,20,o),
(883,68,qs),
(883,113,o),
(887,199,o),
(887,249,qs),
(887,312,o),
(847,368,o),
(805,378,q),
(805,382,l),
(847,393,o),
(887,449,o),
(887,511,qs),
(887,562,o),
(883,649,o),
(883,693,qs),
(883,741,o),
(907,773,o),
(943,773,qs),
(972,773,l),
(972,857,l),
(905,857,ls),
(832,857,o),
(763,789,o),
(763,699,qs),
(763,661,o),
(769,601,o),
(774,544,o),
(774,509,qs),
(774,489,o),
(756,452,o),
(716,427,o),
(679,426,q),
(679,335,l),
(716,334,o),
(756,309,o),
(774,272,o),
(774,252,qs),
(774,217,o),
(769,160,o),
(763,100,o),
(763,61,qs),
(763,-28,o),
(832,-96,o),
(905,-96,qs),
(972,-96,l)
);
}
);
vertWidth = 1000;
width = 1000;
}
);
note = uniFF5B;
unicode = 65371;
},
{
glyphname = braceright.full;
lastChange = "2023-08-27 12:30:43 +0000";
layers = (
{
layerId = m01;
shapes = (
{
closed = 1;
nodes = (
(28,-12,l),
(57,-12,ls),
(94,-12,o),
(117,20,o),
(117,68,qs),
(117,113,o),
(113,199,o),
(113,249,qs),
(113,312,o),
(153,368,o),
(195,378,q),
(195,382,l),
(153,393,o),
(113,449,o),
(113,511,qs),
(113,562,o),
(117,649,o),
(117,693,qs),
(117,741,o),
(94,773,o),
(57,773,qs),
(28,773,l),
(28,857,l),
(95,857,ls),
(168,857,o),
(237,789,o),
(237,699,qs),
(237,661,o),
(232,601,o),
(226,544,o),
(226,509,qs),
(226,489,o),
(244,452,o),
(285,427,o),
(321,426,q),
(321,335,l),
(285,334,o),
(244,309,o),
(226,272,o),
(226,252,qs),
(226,217,o),
(232,160,o),
(237,100,o),
(237,61,qs),
(237,-28,o),
(168,-96,o),
(95,-96,qs),
(28,-96,l)
);
}
);
vertWidth = 1000;
width = 1000;
}
);
note = uniFF5D;
unicode = 65373;
},
{
glyphname = cornerbracketleft;
lastChange = "2023-08-27 12:30:43 +0000";
layers = (
{
layerId = m01;
shapes = (
{
closed = 1;
nodes = (
(768,216,l),
(768,734,l),
(973,734,l),
(973,853,l),
(638,853,l),
(638,216,l)
);
}
);
vertWidth = 1000;
width = 1000;
}
);
note = uni300C;
unicode = 12300;
},
{
glyphname = cornerbracketright;
lastChange = "2023-08-27 12:30:43 +0000";
layers = (
{
layerId = m01;
shapes = (
{
closed = 1;
nodes = (
(232,544,l),
(232,26,l),
(27,26,l),
(27,-93,l),
(362,-93,l),
(362,544,l)
);
}
);
vertWidth = 1000;
width = 1000;
}
);
note = uni300D;
unicode = 12301;
},
{
glyphname = dblanglebracketleft;
lastChange = "2023-08-27 12:30:43 +0000";
layers = (
{
layerId = m01;
shapes = (
{
closed = 1;
nodes = (
(799,826,l),
(707,853,l),
(515,380,l),
(707,-93,l),
(799,-66,l),
(616,380,l)
);
},
{
closed = 1;
nodes = (
(975,826,l),
(884,853,l),
(692,380,l),
(884,-93,l),
(975,-66,l),
(793,380,l)
);
}
);
vertWidth = 1000;
width = 1000;
}
);
note = uni300A;
unicode = 12298;
},
{
glyphname = dblanglebracketright;
lastChange = "2023-08-27 12:30:43 +0000";
layers = (
{
layerId = m01;
shapes = (
{
closed = 1;
nodes = (
(485,380,l),
(293,853,l),
(201,826,l),
(384,380,l),
(201,-66,l),
(293,-93,l)
);
},
{
closed = 1;
nodes = (
(308,380,l),
(116,853,l),
(25,826,l),
(207,380,l),
(25,-66,l),
(116,-93,l)
);
}
);
vertWidth = 1000;
width = 1000;
}
);
note = uni300B;
unicode = 12299;
},
{
glyphname = tortoiseshellbracketleft;
lastChange = "2023-08-27 12:30:43 +0000";
layers = (
{
layerId = m01;
shapes = (
{
closed = 1;
nodes = (
(978,-20,l),
(808,89,l),
(808,671,l),
(978,780,l),
(926,866,l),
(687,713,l),
(687,47,l),
(926,-106,l)
);
}
);
vertWidth = 1000;
width = 1000;
}
);
note = uni3014;
unicode = 12308;
},
{
glyphname = tortoiseshellbracketright;
lastChange = "2023-08-27 12:30:43 +0000";
layers = (
{
layerId = m01;
shapes = (
{
closed = 1;
nodes = (
(22,-20,l),
(192,89,l),
(192,671,l),
(22,780,l),
(74,866,l),
(313,713,l),
(313,47,l),
(74,-106,l)
);
}
);
vertWidth = 1000;
width = 1000;
}
);
note = uni3015;
unicode = 12309;
},
{
glyphname = whitecornerbracketleft;
lastChange = "2023-08-27 12:30:43 +0000";
layers = (
{
layerId = m01;
shapes = (
{
closed = 1;
nodes = (
(973,853,l),
(600,853,l),
(600,193,l),
(799,193,l),
(799,670,l),
(973,670,l)
);
},
{
closed = 1;
nodes = (
(926,716,l),
(752,716,l),
(752,240,l),
(647,240,l),
(647,806,l),
(926,806,l)
);
}
);
vertWidth = 1000;
width = 1000;
}
);
note = uni300E;
unicode = 12302;
},
{
glyphname = whitecornerbracketright;
lastChange = "2023-08-27 12:30:43 +0000";
layers = (
{
layerId = m01;
shapes = (
{
closed = 1;
nodes = (
(27,-93,l),
(400,-93,l),
(400,567,l),
(201,567,l),
(201,90,l),
(27,90,l)
);
},
{
closed = 1;
nodes = (
(74,44,l),
(248,44,l),
(248,520,l),
(353,520,l),
(353,-46,l),
(74,-46,l)
);
}
);
vertWidth = 1000;
width = 1000;
}
);
note = uni300F;
unicode = 12303;
},
{
glyphname = whitelenticularbracketleft;
lastChange = "2023-08-27 12:30:43 +0000";
layers = (
{
layerId = m01;
shapes = (
{
closed = 1;
nodes = (
(894,-39,o),
(776,89,o),
(710,267,o),
(710,380,qs),
(710,493,o),
(776,671,o),
(894,800,o),
(973,836,q),
(973,853,l),
(630,853,l),
(630,-93,l),
(973,-93,l),
(973,-76,l)
);
},
{
closed = 1;
nodes = (
(656,828,l),
(906,828,l),
(871,806,o),
(794,732,o),
(727,624,o),
(685,477,o),
(685,380,qs),
(685,283,o),
(727,136,o),
(794,28,o),
(871,-46,o),
(906,-68,q),
(656,-68,l)
);
}
);
vertWidth = 1000;
width = 1000;
}
);
note = uni3016;
unicode = 12310;
},
{
glyphname = whitelenticularbracketright;
lastChange = "2023-08-27 12:30:43 +0000";
layers = (
{
layerId = m01;
shapes = (
{
closed = 1;
nodes = (
(370,-93,l),
(370,853,l),
(27,853,l),
(27,836,l),
(106,800,o),
(224,671,o),
(290,493,o),
(290,380,qs),
(290,268,o),
(224,89,o),
(106,-39,o),
(27,-76,q),
(27,-93,l)
);
},
{
closed = 1;
nodes = (
(129,-46,o),
(206,28,o),
(273,136,o),
(315,283,o),
(315,380,qs),
(315,477,o),
(273,624,o),
(206,732,o),
(129,806,o),
(94,828,q),
(344,828,l),
(344,-68,l),
(94,-68,l)
);
}
);
vertWidth = 1000;
width = 1000;
}
);
note = uni3017;
unicode = 12311;
},
{
glyphname = anglebracketleft.vert;
lastChange = "2023-08-27 12:30:43 +0000";
layers = (
{
layerId = m01;
shapes = (
{
closed = 1;
nodes = (
(927,-66,l),
(973,43,l),
(500,327,l),
(27,43,l),
(73,-66,l),
(500,191,l)
);
}
);
vertWidth = 1000;
width = 1000;
}
);
note = uniFE3F;
unicode = 65087;
},
{
glyphname = anglebracketright.vert;
lastChange = "2023-08-27 12:30:43 +0000";
layers = (
{
layerId = m01;
shapes = (
{
closed = 1;
nodes = (
(73,826,l),
(27,717,l),
(500,433,l),
(973,717,l),
(927,826,l),
(500,569,l)
);
}
);
vertWidth = 1000;
width = 1000;
}
);
note = uniFE40;
unicode = 65088;
},
{
glyphname = blacklenticularbracketleft.vert;
lastChange = "2023-08-27 12:30:43 +0000";
layers = (
{
layerId = m01;
shapes = (
{
closed = 1;
nodes = (
(973,221,l),
(27,221,l),
(27,-93,l),
(32,-93,l),
(79,-38,o),
(219,51,o),
(397,105,o),
(500,105,qs),
(604,105,o),
(781,51,o),
(922,-38,o),
(968,-93,q),
(973,-93,l)
);
}
);
vertWidth = 1000;
width = 1000;
}
);
note = uniFE3B;
unicode = 65083;
},
{
glyphname = blacklenticularbracketright.vert;
lastChange = "2023-08-27 12:30:43 +0000";
layers = (
{
layerId = m01;
shapes = (
{
closed = 1;
nodes = (
(973,853,l),
(968,853,l),
(922,799,o),
(781,709,o),
(604,655,o),
(500,655,qs),
(397,655,o),
(219,709,o),
(79,799,o),
(32,853,q),
(27,853,l),
(27,539,l),
(973,539,l)
);
}
);
vertWidth = 1000;
width = 1000;
}
);
note = uniFE3C;
unicode = 65084;
},
{
glyphname = bracketleft.full;
lastChange = "2023-08-27 12:30:43 +0000";
layers = (
{
layerId = m01;
shapes = (
{
closed = 1;
nodes = (
(973,-93,l),
(973,-7,l),
(834,-7,l),
(834,767,l),
(973,767,l),
(973,853,l),
(714,853,l),
(714,-93,l)
);
}
);
vertWidth = 1000;
width = 1000;
}
);
note = uniFF3B;
unicode = 65339;
},
{
glyphname = bracketright.full;
lastChange = "2023-08-27 12:30:43 +0000";
layers = (
{
layerId = m01;
shapes = (
{
closed = 1;
nodes = (
(27,-93,l),
(27,-7,l),
(166,-7,l),
(166,767,l),
(27,767,l),
(27,853,l),
(286,853,l),
(286,-93,l)
);
}
);
vertWidth = 1000;
width = 1000;
}
);
note = uniFF3D;
unicode = 65341;
},
{
glyphname = cornerbracketleft.vert;
lastChange = "2023-08-27 12:30:43 +0000";
layers = (
{
layerId = m01;
shapes = (
{
closed = 1;
nodes = (
(286,118,l),
(844,118,l),
(844,-93,l),
(975,-93,l),
(975,242,l),
(286,242,l)
);
}
);
vertWidth = 1000;
width = 1000;
}
);
note = uniFE41;
unicode = 65089;
},
{
glyphname = cornerbracketright.vert;
lastChange = "2023-08-27 12:30:43 +0000";
layers = (
{
layerId = m01;
shapes = (
{
closed = 1;
nodes = (
(714,624,l),
(156,624,l),
(156,836,l),
(25,836,l),
(25,500,l),
(714,500,l)
);
}
);
vertWidth = 1000;
width = 1000;
}
);
note = uniFE42;
unicode = 65090;
},
{
glyphname = dblanglebracketleft.vert;
lastChange = "2023-08-27 12:30:43 +0000";
layers = (
{
layerId = m01;
shapes = (
{
closed = 1;
nodes = (
(946,81,l),
(973,173,l),
(500,365,l),
(27,173,l),
(54,81,l),
(500,264,l)
);
},
{
closed = 1;
nodes = (
(946,-95,l),
(973,-4,l),
(500,188,l),
(27,-4,l),
(54,-95,l),
(500,87,l)
);
}
);
vertWidth = 1000;
width = 1000;
}
);
note = uniFE3D;
unicode = 65085;
},
{
glyphname = dblanglebracketright.vert;
lastChange = "2023-08-27 12:30:43 +0000";
layers = (
{
layerId = m01;
shapes = (
{
closed = 1;
nodes = (
(54,679,l),
(27,587,l),
(500,395,l),
(973,587,l),
(946,679,l),
(500,496,l)
);
},
{
closed = 1;
nodes = (
(54,855,l),
(27,764,l),
(500,572,l),
(973,764,l),
(946,855,l),
(500,673,l)
);
}
);
vertWidth = 1000;
width = 1000;
}
);
note = uniFE3E;
unicode = 65086;
},
{
glyphname = parenleft.full;
lastChange = "2023-08-27 12:30:43 +0000";
layers = (
{
layerId = m01;
shapes = (
{
closed = 1;
nodes = (
(709,91,o),
(799,-50,o),
(851,-102,q),
(956,-56,l),
(908,-3,o),
(827,124,o),
(779,283,o),
(779,380,qs),
(779,478,o),
(827,636,o),
(908,764,o),
(956,816,q),
(851,862,l),
(799,811,o),
(709,669,o),
(654,489,o),
(654,380,qs),
(654,271,o)
);
}
);
vertWidth = 1000;
width = 1000;
}
);
note = uniFF08;
unicode = 65288;
},
{
glyphname = parenright.full;
lastChange = "2023-08-27 12:30:43 +0000";
layers = (
{
layerId = m01;
shapes = (
{
closed = 1;
nodes = (
(291,669,o),
(202,811,o),
(149,862,q),
(44,816,l),
(92,764,o),
(173,636,o),
(221,478,o),
(221,380,qs),
(221,283,o),
(173,124,o),
(92,-3,o),
(44,-56,q),
(149,-102,l),
(202,-50,o),
(291,91,o),
(346,271,o),
(346,380,qs),
(346,489,o)
);
}
);
vertWidth = 1000;
width = 1000;
}
);
note = uniFF09;
unicode = 65289;
},
{
glyphname = tortoiseshellbracketleft.vert;
lastChange = "2023-08-27 12:30:43 +0000";
layers = (
{
layerId = m01;
shapes = (
{
closed = 1;
nodes = (
(100,-98,l),
(209,72,l),
(791,72,l),
(900,-98,l),
(986,-46,l),
(833,193,l),
(167,193,l),
(14,-46,l)
);
}
);
vertWidth = 1000;
width = 1000;
}
);
note = uniFE39;
unicode = 65081;
},
{
glyphname = tortoiseshellbracketright.vert;
lastChange = "2023-08-27 12:30:43 +0000";
layers = (
{
layerId = m01;
shapes = (
{
closed = 1;
nodes = (
(100,858,l),
(209,688,l),
(791,688,l),
(900,858,l),
(986,806,l),
(833,567,l),
(167,567,l),
(14,806,l)
);
}
);
vertWidth = 1000;
width = 1000;
}
);
note = uniFE3A;
unicode = 65082;
},
{
glyphname = whitecornerbracketleft.vert;
lastChange = "2023-08-27 12:30:43 +0000";
layers = (
{
layerId = m01;
shapes = (
{
closed = 1;
nodes = (
(973,-93,l),
(973,265,l),
(313,265,l),
(313,81,l),
(780,81,l),
(780,-93,l)
);
},
{
closed = 1;
nodes = (
(826,-46,l),
(826,128,l),
(360,128,l),
(360,218,l),
(926,218,l),
(926,-46,l)
);
}
);
vertWidth = 1000;
width = 1000;
}
);
note = uniFE43;
unicode = 65091;
},
{
glyphname = whitecornerbracketright.vert;
lastChange = "2023-08-27 12:30:43 +0000";
layers = (
{
layerId = m01;
shapes = (
{
closed = 1;
nodes = (
(27,853,l),
(27,495,l),
(687,495,l),
(687,679,l),
(220,679,l),
(220,853,l)
);
},
{
closed = 1;
nodes = (
(174,806,l),
(174,632,l),
(640,632,l),
(640,542,l),
(74,542,l),
(74,806,l)
);
}
);
vertWidth = 1000;
width = 1000;
}
);
note = uniFE44;
unicode = 65092;
},
{
glyphname = whitelenticularbracketleft.vert;
lastChange = "2023-08-27 12:30:43 +0000";
layers = (
{
layerId = m01;
shapes = (
{
closed = 1;
nodes = (
(81,-14,o),
(209,104,o),
(387,170,o),
(500,170,qs),
(613,170,o),
(791,104,o),
(920,-14,o),
(956,-93,q),
(973,-93,l),
(973,250,l),
(27,250,l),
(27,-93,l),
(44,-93,l)
);
},
{
closed = 1;
nodes = (
(948,224,l),
(948,-26,l),
(926,9,o),
(852,86,o),
(744,153,o),
(597,195,o),
(500,195,qs),
(403,195,o),
(256,153,o),
(148,86,o),
(74,9,o),
(52,-26,q),
(52,224,l)
);
}
);
vertWidth = 1000;
width = 1000;
}
);
note = uniFE17;
unicode = 65047;
},
{
glyphname = whitelenticularbracketright.vert;
lastChange = "2023-08-27 12:30:43 +0000";
layers = (
{
layerId = m01;
shapes = (
{
closed = 1;
nodes = (
(27,510,l),
(973,510,l),
(973,853,l),
(956,853,l),
(920,774,o),
(791,656,o),
(613,590,o),
(500,590,qs),
(388,590,o),
(209,656,o),
(81,774,o),
(44,853,q),
(27,853,l)
);
},
{
closed = 1;
nodes = (
(74,751,o),
(148,674,o),
(256,607,o),
(403,565,o),
(500,565,qs),
(597,565,o),
(744,607,o),
(852,674,o),
(926,751,o),
(948,786,q),
(948,536,l),
(52,536,l),
(52,786,l)
);
}
);
vertWidth = 1000;
width = 1000;
}
);
note = uniFE18;
unicode = 65048;
},
{
glyphname = braceleft.full.vert;
lastChange = "2023-08-27 12:30:43 +0000";
layers = (
{
layerId = m01;
shapes = (
{
closed = 1;
nodes = (
(108,-92,l),
(108,-63,ls),
(108,-26,o),
(140,-3,o),
(188,-3,qs),
(233,-3,o),
(319,-7,o),
(369,-7,qs),
(432,-7,o),
(488,33,o),
(498,75,q),
(502,75,l),
(513,33,o),
(569,-7,o),
(631,-7,qs),
(682,-7,o),
(769,-3,o),
(813,-3,qs),
(861,-3,o),
(893,-26,o),
(893,-63,qs),
(893,-92,l),
(977,-92,l),
(977,-25,ls),
(977,48,o),
(909,117,o),
(819,117,qs),
(781,117,o),
(721,112,o),
(664,106,o),
(629,106,qs),
(609,106,o),
(572,124,o),
(547,165,o),
(546,201,q),
(455,201,l),
(454,165,o),
(429,124,o),
(392,106,o),
(372,106,qs),
(337,106,o),
(280,112,o),
(220,117,o),
(181,117,qs),
(92,117,o),
(24,48,o),
(24,-25,qs),
(24,-92,l)
);
}
);
vertWidth = 1000;
width = 1000;
}
);
note = uniFE37;
unicode = 65079;
},
{
glyphname = braceright.full.vert;
lastChange = "2023-08-27 12:30:43 +0000";
layers = (
{
layerId = m01;
shapes = (
{
closed = 1;
nodes = (
(892,852,l),
(892,823,ls),
(892,787,o),
(860,763,o),
(812,763,qs),
(767,763,o),
(681,767,o),
(631,767,qs),
(569,767,o),
(512,727,o),
(502,685,q),
(498,685,l),
(488,727,o),
(431,767,o),
(369,767,qs),
(318,767,o),
(232,763,o),
(187,763,qs),
(139,763,o),
(107,787,o),
(107,823,qs),
(107,852,l),
(23,852,l),
(23,785,ls),
(23,712,o),
(91,643,o),
(181,643,qs),
(220,643,o),
(279,649,o),
(336,654,o),
(371,654,qs),
(392,654,o),
(428,636,o),
(453,596,o),
(454,559,q),
(545,559,l),
(546,596,o),
(571,636,o),
(608,654,o),
(628,654,qs),
(663,654,o),
(720,649,o),
(780,643,o),
(819,643,qs),
(908,643,o),
(976,712,o),
(976,785,qs),
(976,852,l)
);
}
);
vertWidth = 1000;
width = 1000;
}
);
note = uniFE38;
unicode = 65080;
},
{
glyphname = bracketleft.full.vert;
lastChange = "2023-08-27 12:30:43 +0000";
layers = (
{
layerId = m01;
shapes = (
{
closed = 1;
nodes = (
(27,-93,l),
(113,-93,l),
(113,46,l),
(887,46,l),
(887,-93,l),
(973,-93,l),
(973,166,l),
(27,166,l)
);
}
);
vertWidth = 1000;
width = 1000;
}
);
note = uniFE47;
unicode = 65095;
},
{
glyphname = bracketright.full.vert;
lastChange = "2023-08-27 12:30:43 +0000";
layers = (
{
layerId = m01;
shapes = (
{
closed = 1;
nodes = (
(27,853,l),
(113,853,l),
(113,714,l),
(887,714,l),
(887,853,l),
(973,853,l),
(973,594,l),
(27,594,l)
);
}
);
vertWidth = 1000;
width = 1000;
}
);
note = uniFE48;
unicode = 65096;
},
{
glyphname = parenleft.full.vert;
lastChange = "2023-08-27 12:30:43 +0000";
layers = (
{
layerId = m01;
shapes = (
{
closed = 1;
nodes = (
(211,171,o),
(70,82,o),
(18,29,q),
(64,-76,l),
(117,-28,o),
(244,53,o),
(403,101,o),
(500,101,qs),
(598,101,o),
(756,53,o),
(884,-28,o),
(936,-76,q),
(982,29,l),
(931,82,o),
(789,171,o),
(609,226,o),
(500,226,qs),
(391,226,o)
);
}
);
vertWidth = 1000;
width = 1000;
}
);
note = uniFE35;
unicode = 65077;
},
{
glyphname = parenright.full.vert;
lastChange = "2023-08-27 12:30:43 +0000";
layers = (
{
layerId = m01;
shapes = (
{
closed = 1;
nodes = (
(789,589,o),
(931,679,o),
(982,731,q),
(936,836,l),
(884,788,o),
(756,707,o),
(598,659,o),
(500,659,qs),
(403,659,o),
(244,707,o),
(117,788,o),
(64,836,q),
(18,731,l),
(70,679,o),
(211,589,o),
(391,534,o),
(500,534,qs),
(609,534,o)
);
}
